<svg xmlns="http://www.w3.org/2000/svg" xmlns:xlink="http://www.w3.org/1999/xlink" width="371.5" height="98.331" viewBox="0 0 371.5 98.331"><defs><clipPath id="clip-path"><rect id="Rectangle_3" data-name="Rectangle 3" width="371.5" height="98.331" fill="#fff"></rect></clipPath></defs><g id="Group_19" data-name="Group 19" transform="translate(0 0)"><g id="Group_1" data-name="Group 1" transform="translate(0 0)" clip-path="url(#clip-path)"><path id="Path_1" data-name="Path 1" d="M169.277,50.667A38.043,38.043,0,0,1,172.9,33.99a37.158,37.158,0,0,1,7.97-10.7,32.98,32.98,0,0,1,17.353-8.939c12.6-2.2,23.671.909,32.858,9.923a35.319,35.319,0,0,1,10.565,21.7c1.262,10.883-1.345,20.742-8.436,29.2a34.305,34.305,0,0,1-22.126,12.264c-10.373,1.465-19.837-.828-28.089-7.407a35.968,35.968,0,0,1-12.952-21.415,37.923,37.923,0,0,1-.764-7.953m13.367-.014a28.949,28.949,0,0,0,1.647,10.2,21.25,21.25,0,0,0,11.978,12.79,24.919,24.919,0,0,0,12.461,1.548,20.681,20.681,0,0,0,16.823-11.275c2.551-4.676,3.236-9.762,2.976-15.014a25.9,25.9,0,0,0-2.934-11.22,20.691,20.691,0,0,0-11.624-10.2,25.877,25.877,0,0,0-12.147-1.056c-7.557,1.029-13.007,5.063-16.474,11.794a26.953,26.953,0,0,0-2.706,12.431" transform="translate(129.547 10.464)" fill="#fff"></path><path id="Path_2" data-name="Path 2" d="M128.76,73.178V14.545h13.068v71.14h-.607c-8.71,0-17.42.023-26.128-.009A60.613,60.613,0,0,1,99.675,83.9a22.8,22.8,0,0,1-12.5-8.11,18.285,18.285,0,0,1-3.333-8.136A61.592,61.592,0,0,1,82.839,56.4q-.026-20.633-.007-41.266v-.59H95.889v.68q0,20.161,0,40.325a29.2,29.2,0,0,0,1.057,7.9,12.474,12.474,0,0,0,8.428,8.759,17.9,17.9,0,0,0,6.016.987c5.633.014,11.268,0,16.9,0,.125,0,.254-.012.468-.021" transform="translate(63.389 11.132)" fill="#fff"></path><path id="Path_3" data-name="Path 3" d="M147.1,85.73H121.348q-.005-6.156-.012-12.311a.862.862,0,0,1,.064-.215h.662c8.472,0,16.943.034,25.415-.025a42.221,42.221,0,0,0,5.958-.538,10.66,10.66,0,0,0,5.239-2.127,5.852,5.852,0,0,0,1.576-7.208,7.728,7.728,0,0,0-3.022-3.082,33.562,33.562,0,0,0-7.465-3.351c-4.516-1.449-9.044-2.862-13.552-4.336a22.838,22.838,0,0,1-9.887-6.043,17.723,17.723,0,0,1-4.8-8.954c-.152-.824-.261-1.654-.392-2.482V31.6a4.422,4.422,0,0,0,.109-.517,15.364,15.364,0,0,1,3.61-8.786,21.2,21.2,0,0,1,8.036-5.5A31.862,31.862,0,0,1,145.51,14.58c9.215-.025,18.428-.007,27.641-.005.187,0,.372.019.588.034-.041.161-.055.249-.085.332q-2.1,5.886-4.189,11.778c-.117.332-.309.372-.6.371-2.794-.016-5.589-.03-8.383-.028q-7.165,0-14.332.026c-.973,0-1.947.014-2.916.078a13.469,13.469,0,0,0-6.044,1.809,4.739,4.739,0,0,0-2.482,3.052,6.537,6.537,0,0,0,1.688,6.036,11.947,11.947,0,0,0,4.98,3.139c3.312,1.2,6.683,2.228,10.011,3.384,4.346,1.511,8.706,2.99,13,4.639a14.535,14.535,0,0,1,9.037,10A24.159,24.159,0,0,1,174,69.593a16.64,16.64,0,0,1-3.509,8.292,19.358,19.358,0,0,1-8.821,5.792,40.968,40.968,0,0,1-12.219,1.929c-.786.035-1.569.083-2.353.124" transform="translate(92.703 11.148)" fill="#fff"></path><path id="Path_4" data-name="Path 4" d="M173.045,85.822H158.333a5.814,5.814,0,0,1-.09-.736q-.005-28.577,0-57.155v-.748h-4.775v-.215c.069-.143.155-.279.21-.427q1.369-3.742,2.727-7.488c.542-1.5,1.07-3,1.606-4.505h15.037c.007.217.019.433.019.648q0,34.937,0,69.874c0,.251-.012.5-.019.754" transform="translate(117.446 11.133)" fill="#fff"></path><path id="Path_5" data-name="Path 5" d="M170.593,7.317a7.425,7.425,0,0,1-14.848,0,7.425,7.425,0,0,1,14.848,0" transform="translate(119.191 0.001)" fill="#fff"></path><path id="Path_6" data-name="Path 6" d="M39.469,14.305q-13.012,12.313-25.95,24.55c.658.581,1.329,1.107,1.924,1.705,1.486,1.5,2.948,3.033,4.4,4.567q5.428,5.717,10.839,11.448Q36.946,63.19,43.194,69.8q5.158,5.457,10.315,10.913A6.948,6.948,0,0,1,55.6,85.664a6.525,6.525,0,0,1-5.958,6.378,5.978,5.978,0,0,1-4.509-1.481c-1.181-1.019-2.284-2.134-3.363-3.264q-5.8-6.08-11.573-12.2-6.8-7.184-13.591-14.375Q10.232,53.967,3.856,47.208A12.929,12.929,0,0,1,.9,42.912C-.777,38.385-.178,34.258,3.254,30.747c2.508-2.569,5.105-5.052,7.7-7.533C14.8,19.539,18.67,15.9,22.538,12.245c2.93-2.768,5.854-5.538,8.8-8.283a11.98,11.98,0,0,1,6.4-3.218,10.712,10.712,0,0,1,8.265,2.007,24.872,24.872,0,0,1,3.065,2.807c2.468,2.54,4.9,5.119,7.33,7.69q7.523,7.946,15.032,15.9,6.127,6.48,12.251,12.956,2.64,2.8,5.266,5.614a6.5,6.5,0,0,1-9.178,9.194c-1.352-1.317-2.618-2.722-3.917-4.1q-4.1-4.335-8.2-8.678Q61.3,37.417,54.945,30.7,49.279,24.713,43.61,18.734q-1.9-2-3.792-4.007c-.122-.127-.222-.268-.35-.422" transform="translate(0 0.457)" fill="#fff"></path><path id="Path_7" data-name="Path 7" d="M72.454,80.86Q85.426,68.605,98.381,56.368c-.418-.367-.839-.7-1.215-1.077-1.485-1.486-2.976-2.967-4.427-4.486-2.6-2.722-5.181-5.469-7.767-8.207L71.829,28.676Q65.85,22.345,59.871,16.012c-.713-.756-1.449-1.5-2.088-2.311a6.5,6.5,0,0,1,3.257-10.32A6.1,6.1,0,0,1,67.01,4.8c1.147,1,2.2,2.113,3.259,3.215,2.544,2.659,5.065,5.336,7.591,8.011q5.6,5.918,11.19,11.842,5.351,5.661,10.7,11.326c2.994,3.179,6.021,6.329,8.954,9.564a11.336,11.336,0,0,1,2.569,11.637,10.567,10.567,0,0,1-2.86,4.35c-3.033,2.967-6.071,5.926-9.146,8.853Q92.346,80.18,85.376,86.716c-1.711,1.613-3.405,3.246-5.165,4.809a11.416,11.416,0,0,1-8.187,3.068A11.034,11.034,0,0,1,64.351,91.2c-3.135-3.183-6.191-6.443-9.266-9.684q-4.8-5.05-9.563-10.128-6.143-6.514-12.29-13.023Q28.1,52.919,22.974,47.455a6.467,6.467,0,0,1-1.841-5.107,6.165,6.165,0,0,1,4.035-5.414,6.1,6.1,0,0,1,7.123,1.472c2.321,2.385,4.59,4.819,6.876,7.241q4.253,4.5,8.495,9.015,6.715,7.11,13.434,14.214,5.6,5.921,11.192,11.84a2.143,2.143,0,0,0,.166.143" transform="translate(16.154 2.387)" fill="#fff"></path></g></g></svg>